<mxfile host="app.diagrams.net" modified="2024-06-09T06:26:13.374Z" agent="Mozilla/5.0 (Windows NT 10.0; Win64; x64) AppleWebKit/537.36 (KHTML, like Gecko) Chrome/125.0.0.0 Safari/537.36 Edg/125.0.0.0" etag="OWwO5m-n6xtU_MyhQAGy" version="24.5.2" type="device">
  <diagram name="Page-1" id="LA9-Y1V1zJIlQjxkmPLj">
    <mxGraphModel dx="-2735" dy="825" grid="1" gridSize="10" guides="1" tooltips="1" connect="1" arrows="1" fold="1" page="1" pageScale="1" pageWidth="827" pageHeight="1169" math="0" shadow="0">
      <root>
        <mxCell id="0" />
        <mxCell id="1" parent="0" />
        <mxCell id="w5IClKjI47956kgkfzwD-1" value="&lt;span style=&quot;text-wrap: nowrap;&quot;&gt;Technical&lt;/span&gt;&lt;br style=&quot;text-wrap: nowrap;&quot;&gt;&lt;span style=&quot;text-wrap: nowrap;&quot;&gt;team&lt;/span&gt;" style="html=1;shape=mxgraph.sysml.actPart;strokeWidth=3;verticalAlign=top;rotation=0;whiteSpace=wrap;" vertex="1" parent="1">
          <mxGeometry x="4280" y="47" width="125" height="1090" as="geometry" />
        </mxCell>
        <mxCell id="w5IClKjI47956kgkfzwD-2" value="Website (Front)" style="html=1;shape=mxgraph.sysml.actPart;strokeWidth=3;verticalAlign=top;rotation=0;whiteSpace=wrap;" vertex="1" parent="1">
          <mxGeometry x="4410" y="47" width="125" height="1090" as="geometry" />
        </mxCell>
        <mxCell id="w5IClKjI47956kgkfzwD-3" value="Website (Back)" style="html=1;shape=mxgraph.sysml.actPart;strokeWidth=3;verticalAlign=top;rotation=0;whiteSpace=wrap;" vertex="1" parent="1">
          <mxGeometry x="4540" y="47" width="125" height="1090" as="geometry" />
        </mxCell>
        <mxCell id="w5IClKjI47956kgkfzwD-4" value="(D.B)" style="html=1;shape=mxgraph.sysml.actPart;strokeWidth=3;verticalAlign=top;rotation=0;whiteSpace=wrap;" vertex="1" parent="1">
          <mxGeometry x="4670" y="47" width="125" height="1090" as="geometry" />
        </mxCell>
        <mxCell id="w5IClKjI47956kgkfzwD-5" style="edgeStyle=orthogonalEdgeStyle;rounded=0;orthogonalLoop=1;jettySize=auto;html=1;" edge="1" parent="1" source="w5IClKjI47956kgkfzwD-6" target="w5IClKjI47956kgkfzwD-10">
          <mxGeometry relative="1" as="geometry">
            <mxPoint x="4472.5" y="227" as="targetPoint" />
          </mxGeometry>
        </mxCell>
        <mxCell id="w5IClKjI47956kgkfzwD-6" value="ورود به صفحه اصلی" style="shape=rect;html=1;rounded=1;whiteSpace=wrap;align=center;" vertex="1" parent="1">
          <mxGeometry x="4422.5" y="137" width="100" height="50" as="geometry" />
        </mxCell>
        <mxCell id="w5IClKjI47956kgkfzwD-7" style="edgeStyle=orthogonalEdgeStyle;rounded=0;orthogonalLoop=1;jettySize=auto;html=1;" edge="1" parent="1" source="w5IClKjI47956kgkfzwD-8" target="w5IClKjI47956kgkfzwD-6">
          <mxGeometry relative="1" as="geometry" />
        </mxCell>
        <mxCell id="w5IClKjI47956kgkfzwD-8" value="" style="shape=ellipse;html=1;fillColor=strokeColor;strokeWidth=2;verticalLabelPosition=bottom;verticalAlignment=top;perimeter=ellipsePerimeter;" vertex="1" parent="1">
          <mxGeometry x="4332.5" y="97" width="20" height="20" as="geometry" />
        </mxCell>
        <mxCell id="w5IClKjI47956kgkfzwD-9" value="" style="edgeStyle=orthogonalEdgeStyle;rounded=0;orthogonalLoop=1;jettySize=auto;html=1;" edge="1" parent="1" source="w5IClKjI47956kgkfzwD-10" target="w5IClKjI47956kgkfzwD-12">
          <mxGeometry relative="1" as="geometry" />
        </mxCell>
        <mxCell id="w5IClKjI47956kgkfzwD-10" value="زدن بر روی dropdown&amp;nbsp;&lt;div&gt;تیم فنی&lt;/div&gt;" style="shape=rect;html=1;rounded=1;whiteSpace=wrap;align=center;" vertex="1" parent="1">
          <mxGeometry x="4422.5" y="227" width="100" height="50" as="geometry" />
        </mxCell>
        <mxCell id="w5IClKjI47956kgkfzwD-11" value="" style="edgeStyle=orthogonalEdgeStyle;rounded=0;orthogonalLoop=1;jettySize=auto;html=1;" edge="1" parent="1" source="w5IClKjI47956kgkfzwD-12" target="w5IClKjI47956kgkfzwD-14">
          <mxGeometry relative="1" as="geometry" />
        </mxCell>
        <mxCell id="w5IClKjI47956kgkfzwD-12" value="انتخاب زیر منو&lt;br&gt;تاریخ ملاقات" style="shape=rect;html=1;rounded=1;whiteSpace=wrap;align=center;" vertex="1" parent="1">
          <mxGeometry x="4422.5" y="307" width="100" height="50" as="geometry" />
        </mxCell>
        <mxCell id="w5IClKjI47956kgkfzwD-13" value="" style="edgeStyle=orthogonalEdgeStyle;rounded=0;orthogonalLoop=1;jettySize=auto;html=1;" edge="1" parent="1" source="w5IClKjI47956kgkfzwD-14" target="w5IClKjI47956kgkfzwD-16">
          <mxGeometry relative="1" as="geometry" />
        </mxCell>
        <mxCell id="w5IClKjI47956kgkfzwD-14" value="انتخاب تیم مورد نظر" style="shape=rect;html=1;rounded=1;whiteSpace=wrap;align=center;" vertex="1" parent="1">
          <mxGeometry x="4422.5" y="387" width="100" height="50" as="geometry" />
        </mxCell>
        <mxCell id="w5IClKjI47956kgkfzwD-15" value="" style="edgeStyle=orthogonalEdgeStyle;rounded=0;orthogonalLoop=1;jettySize=auto;html=1;" edge="1" parent="1" source="w5IClKjI47956kgkfzwD-16" target="w5IClKjI47956kgkfzwD-17">
          <mxGeometry relative="1" as="geometry" />
        </mxCell>
        <mxCell id="w5IClKjI47956kgkfzwD-16" value="مشاهده تاریخ تا 6 روز آینده" style="shape=rect;html=1;rounded=1;whiteSpace=wrap;align=center;" vertex="1" parent="1">
          <mxGeometry x="4422.5" y="460" width="100" height="50" as="geometry" />
        </mxCell>
        <mxCell id="w5IClKjI47956kgkfzwD-17" value="" style="html=1;shape=mxgraph.sysml.actFinal;strokeWidth=2;verticalLabelPosition=bottom;verticalAlignment=top;" vertex="1" parent="1">
          <mxGeometry x="4453" y="552" width="40" height="40" as="geometry" />
        </mxCell>
      </root>
    </mxGraphModel>
  </diagram>
</mxfile>
